<?xml version="1.0" standalone="no"?>
<!DOCTYPE svg PUBLIC "-//W3C//DTD SVG 20010904//EN"
 "http://www.w3.org/TR/2001/REC-SVG-20010904/DTD/svg10.dtd">
<svg version="1.0" xmlns="http://www.w3.org/2000/svg"
 width="1500.000000pt" height="1500.000000pt" viewBox="0 0 1500.000000 1500.000000"
 preserveAspectRatio="xMidYMid meet">
<metadata>
Created by potrace 1.14, written by Peter Selinger 2001-2017
</metadata>
<g transform="translate(0.000000,1500.000000) scale(0.100000,-0.100000)"
fill="#000000" stroke="none">
<path d="M6130 11700 c-469 -30 -961 -175 -1261 -372 l-66 -43 118 -310 c65
-170 122 -318 126 -328 7 -15 13 -14 60 18 114 77 303 160 477 210 219 62 502
90 697 66 370 -43 623 -200 755 -466 72 -146 87 -220 88 -425 1 -254 -30 -385
-154 -635 -108 -221 -246 -419 -521 -750 -217 -262 -323 -413 -430 -610 -172
-317 -264 -611 -291 -928 -9 -118 -9 -174 7 -383 l19 -244 407 0 408 0 -6 263
c-4 211 -2 284 11 377 40 283 147 555 323 825 85 130 156 222 334 435 544 652
757 1036 825 1490 22 152 20 404 -5 550 -104 601 -520 1035 -1146 1195 -222
57 -515 81 -775 65z"/>
<path d="M9655 9404 c-11 -2 -45 -9 -75 -15 -219 -44 -395 -224 -454 -462 -22
-88 -23 -259 -2 -349 55 -236 229 -415 455 -468 76 -18 233 -16 311 4 283 71
460 309 461 621 3 382 -235 654 -585 670 -50 2 -100 2 -111 -1z"/>
<path d="M6075 5674 c-108 -22 -138 -30 -190 -54 -172 -78 -291 -227 -339
-423 -22 -88 -23 -259 -2 -349 54 -233 216 -403 441 -463 78 -21 250 -21 330
0 219 57 377 217 436 442 28 108 28 278 0 386 -62 238 -233 404 -463 451 -72
15 -166 19 -213 10z"/>
<path d="M9655 5674 c-108 -22 -138 -30 -190 -54 -227 -103 -356 -321 -357
-598 0 -173 41 -304 135 -427 112 -148 280 -226 487 -226 123 0 194 16 299 68
300 146 415 575 246 913 -64 127 -168 228 -288 279 -91 39 -252 61 -332 45z"/>
</g>
</svg>
