<?xml version="1.0" standalone="no"?>
<!DOCTYPE svg PUBLIC "-//W3C//DTD SVG 20010904//EN"
 "http://www.w3.org/TR/2001/REC-SVG-20010904/DTD/svg10.dtd">
<svg version="1.0" xmlns="http://www.w3.org/2000/svg"
 width="1500.000000pt" height="1500.000000pt" viewBox="0 0 1500.000000 1500.000000"
 preserveAspectRatio="xMidYMid meet">
<metadata>
Created by potrace 1.14, written by Peter Selinger 2001-2017
</metadata>
<g transform="translate(0.000000,1500.000000) scale(0.100000,-0.100000)"
fill="#000000" stroke="none">
<path d="M65 14986 c-17 -7 -37 -21 -45 -31 -13 -16 -15 -860 -15 -7455 0
-6596 2 -7439 15 -7455 8 -10 29 -24 47 -32 48 -20 14818 -20 14866 0 18 8 39
22 47 32 13 16 15 859 15 7455 0 6596 -2 7439 -15 7455 -8 10 -29 24 -47 32
-47 19 -14823 19 -14868 -1z m3925 -3566 l0 -300 -164 0 c-324 0 -493 -55
-646 -209 -155 -157 -211 -347 -211 -710 1 -236 13 -362 71 -731 52 -325 62
-435 67 -720 6 -304 -5 -418 -54 -575 -101 -320 -317 -537 -630 -631 -32 -10
-62 -21 -67 -25 -5 -4 22 -17 60 -28 350 -104 581 -364 665 -746 18 -83 22
-142 26 -350 6 -295 -7 -457 -67 -843 -54 -350 -70 -523 -71 -736 0 -267 30
-431 107 -576 139 -265 377 -369 842 -370 l72 0 0 -297 0 -296 -227 6 c-318 8
-521 40 -725 113 -313 113 -558 339 -683 631 -86 200 -116 360 -122 663 -6
279 5 404 77 910 61 428 68 495 79 695 19 367 -34 570 -190 726 -121 122 -307
194 -534 207 l-120 7 0 275 0 275 110 6 c260 15 419 74 550 204 156 154 204
350 184 738 -11 208 -20 288 -79 712 -75 540 -75 544 -75 855 0 257 3 295 23
386 88 405 293 681 627 847 264 132 518 179 993 185 l112 2 0 -300z m7550 274
c373 -47 663 -176 871 -385 161 -162 264 -361 321 -622 21 -93 23 -127 22
-397 0 -319 2 -299 -78 -872 -25 -179 -53 -397 -61 -485 -18 -186 -21 -480 -6
-575 58 -357 293 -541 721 -566 l115 -7 0 -275 0 -275 -115 -7 c-306 -18 -536
-142 -642 -344 -69 -131 -89 -234 -89 -455 0 -216 11 -325 76 -789 79 -558 88
-669 82 -955 -4 -208 -9 -256 -31 -362 -111 -520 -417 -840 -934 -974 -163
-42 -307 -59 -564 -66 l-228 -6 0 296 0 297 69 0 c120 0 317 20 398 40 302 76
484 288 539 629 17 109 20 376 4 526 -15 151 -58 472 -85 640 -45 282 -57 440
-52 690 4 185 9 249 27 330 45 210 128 378 249 507 118 126 231 198 399 253
46 15 81 30 78 32 -3 3 -37 16 -76 29 -39 13 -103 40 -143 60 -276 138 -440
369 -514 724 -15 69 -18 135 -18 355 0 281 4 328 55 655 100 640 116 995 56
1234 -71 278 -231 441 -504 513 -82 21 -126 26 -289 30 l-193 6 0 300 0 300
213 -7 c116 -4 264 -14 327 -22z m-4937 1 c437 -51 766 -192 1023 -438 301
-287 454 -662 454 -1105 -1 -297 -67 -567 -211 -854 -130 -261 -277 -470 -620
-885 -203 -245 -269 -331 -352 -459 -126 -195 -210 -376 -268 -575 -56 -196
-71 -378 -59 -734 l5 -150 -412 -3 c-227 -1 -413 1 -413 5 0 5 -7 85 -15 178
-35 406 -9 666 96 973 123 356 286 628 618 1026 310 372 477 626 576 871 158
392 125 812 -83 1071 -230 285 -687 394 -1210 289 -220 -45 -450 -135 -611
-239 l-72 -46 -10 28 c-5 15 -61 162 -124 328 -63 166 -115 304 -115 308 0 11
130 91 229 141 291 145 637 237 1051 278 100 10 409 5 523 -8z m3292 -2300
c298 -76 481 -356 462 -705 -7 -123 -44 -240 -110 -337 -60 -91 -120 -143
-222 -194 -253 -125 -559 -78 -742 115 -120 126 -183 287 -183 469 0 322 182
575 470 651 74 20 250 20 325 1z m-3580 -3730 c218 -55 380 -219 442 -445 13
-49 18 -101 18 -210 -1 -132 -3 -152 -29 -225 -58 -167 -157 -285 -298 -354
-191 -94 -413 -94 -599 0 -97 48 -205 162 -257 269 -96 198 -96 439 0 640 75
156 232 285 396 324 78 19 253 20 327 1z m3580 0 c298 -76 481 -355 462 -705
-12 -235 -136 -434 -329 -529 -191 -94 -413 -94 -599 0 -97 48 -205 162 -257
269 -96 198 -96 439 0 640 75 156 232 285 396 324 78 19 253 20 327 1z"/>
</g>
</svg>
